<mxfile host="www.draw.io" modified="2019-11-14T03:29:31.813Z" agent="Mozilla/5.0 (Macintosh; Intel Mac OS X 10_15) AppleWebKit/605.1.15 (KHTML, like Gecko) Version/13.0.2 Safari/605.1.15" etag="LTwrHfigJyhcC_gwVcNw" version="12.2.6" type="github" pages="1">
  <diagram id="QXnWpjxVT1Wi_6HcI1Gs" name="第 1 页">
    <mxGraphModel dx="877" dy="599" grid="1" gridSize="10" guides="1" tooltips="1" connect="1" arrows="1" fold="1" page="1" pageScale="1" pageWidth="2339" pageHeight="3300" math="0" shadow="0">
      <root>
        <mxCell id="0"/>
        <mxCell id="1" parent="0"/>
        <mxCell id="4t1HwyWgQuPsWHYAofXQ-1" value="开始" style="strokeWidth=2;html=1;shape=mxgraph.flowchart.start_1;whiteSpace=wrap;" parent="1" vertex="1">
          <mxGeometry x="280" y="90" width="100" height="60" as="geometry"/>
        </mxCell>
        <mxCell id="4t1HwyWgQuPsWHYAofXQ-2" value="syncRoomInfo" style="rounded=1;whiteSpace=wrap;html=1;absoluteArcSize=1;arcSize=14;strokeWidth=2;" parent="1" vertex="1">
          <mxGeometry x="280" y="350" width="100" height="100" as="geometry"/>
        </mxCell>
        <mxCell id="4t1HwyWgQuPsWHYAofXQ-3" value="updateVoiceRoomInfo" style="rounded=1;whiteSpace=wrap;html=1;absoluteArcSize=1;arcSize=14;strokeWidth=2;" parent="1" vertex="1">
          <mxGeometry x="240" y="200" width="180" height="100" as="geometry"/>
        </mxCell>
        <mxCell id="4t1HwyWgQuPsWHYAofXQ-5" value="" style="strokeWidth=2;html=1;shape=mxgraph.flowchart.annotation_2;align=left;labelPosition=right;pointerEvents=1;" parent="1" vertex="1">
          <mxGeometry x="460" y="110" width="50" height="280" as="geometry"/>
        </mxCell>
        <mxCell id="4t1HwyWgQuPsWHYAofXQ-22" value="更新Model" style="text;html=1;resizable=0;points=[];autosize=1;align=left;verticalAlign=top;spacingTop=-4;" parent="1" vertex="1">
          <mxGeometry x="520" y="120" width="70" height="20" as="geometry"/>
        </mxCell>
        <mxCell id="4t1HwyWgQuPsWHYAofXQ-23" value="开启引导动画" style="text;html=1;resizable=0;points=[];autosize=1;align=left;verticalAlign=top;spacingTop=-4;" parent="1" vertex="1">
          <mxGeometry x="520" y="150" width="90" height="20" as="geometry"/>
        </mxCell>
        <mxCell id="4t1HwyWgQuPsWHYAofXQ-24" value="更新房间顶部信息" style="text;html=1;resizable=0;points=[];autosize=1;align=left;verticalAlign=top;spacingTop=-4;" parent="1" vertex="1">
          <mxGeometry x="520" y="180" width="110" height="20" as="geometry"/>
        </mxCell>
        <mxCell id="4t1HwyWgQuPsWHYAofXQ-25" value="更新房间背景图片" style="text;html=1;resizable=0;points=[];autosize=1;align=left;verticalAlign=top;spacingTop=-4;" parent="1" vertex="1">
          <mxGeometry x="520" y="247" width="110" height="20" as="geometry"/>
        </mxCell>
        <mxCell id="4t1HwyWgQuPsWHYAofXQ-26" value="更新房间信息页面" style="text;html=1;resizable=0;points=[];autosize=1;align=left;verticalAlign=top;spacingTop=-4;" parent="1" vertex="1">
          <mxGeometry x="520" y="212" width="110" height="20" as="geometry"/>
        </mxCell>
        <mxCell id="4t1HwyWgQuPsWHYAofXQ-27" value="更新悬浮窗信息" style="text;html=1;resizable=0;points=[];autosize=1;align=left;verticalAlign=top;spacingTop=-4;" parent="1" vertex="1">
          <mxGeometry x="520" y="282" width="100" height="20" as="geometry"/>
        </mxCell>
        <mxCell id="4t1HwyWgQuPsWHYAofXQ-28" value="更新麦克风信息" style="text;html=1;resizable=0;points=[];autosize=1;align=left;verticalAlign=top;spacingTop=-4;" parent="1" vertex="1">
          <mxGeometry x="520" y="315" width="100" height="20" as="geometry"/>
        </mxCell>
        <mxCell id="4t1HwyWgQuPsWHYAofXQ-29" value="更新声波动画" style="text;html=1;resizable=0;points=[];autosize=1;align=left;verticalAlign=top;spacingTop=-4;" parent="1" vertex="1">
          <mxGeometry x="520" y="348" width="90" height="20" as="geometry"/>
        </mxCell>
        <mxCell id="uTZmpidnTNi-9U0CQCSV-9" value="" style="rounded=1;absoluteArcSize=1;html=1;strokeWidth=2;arcSize=10;fontSize=14;fillColor=none;" vertex="1" parent="1">
          <mxGeometry x="380" y="780" width="760" height="340" as="geometry"/>
        </mxCell>
        <mxCell id="uTZmpidnTNi-9U0CQCSV-10" value="" style="html=1;strokeWidth=2;shape=mxgraph.er.anchor;fontSize=14;whiteSpace=wrap;" vertex="1" parent="uTZmpidnTNi-9U0CQCSV-9">
          <mxGeometry width="380" height="340" as="geometry"/>
        </mxCell>
        <mxCell id="uTZmpidnTNi-9U0CQCSV-14" value="" style="rounded=1;absoluteArcSize=1;html=1;strokeWidth=2;arcSize=10;fontSize=14;fillColor=none;" vertex="1" parent="1">
          <mxGeometry x="10" y="980" width="290" height="390" as="geometry"/>
        </mxCell>
        <mxCell id="uTZmpidnTNi-9U0CQCSV-15" value="" style="html=1;strokeWidth=2;shape=mxgraph.er.anchor;fontSize=14;whiteSpace=wrap;" vertex="1" parent="uTZmpidnTNi-9U0CQCSV-14">
          <mxGeometry width="145" height="390" as="geometry"/>
        </mxCell>
        <mxCell id="uTZmpidnTNi-9U0CQCSV-23" value="&lt;font style=&quot;font-size: 12px&quot;&gt;VoiceRoom&lt;br&gt;OwnerMicView房主&lt;/font&gt;" style="strokeWidth=2;rounded=1;arcSize=10;whiteSpace=wrap;html=1;align=center;fontSize=14;fillColor=none;" vertex="1" parent="uTZmpidnTNi-9U0CQCSV-14">
          <mxGeometry x="20" y="20.012605042016816" width="100" height="73.52941176470588" as="geometry"/>
        </mxCell>
        <mxCell id="uTZmpidnTNi-9U0CQCSV-24" value="&lt;font style=&quot;font-size: 12px&quot;&gt;VoiceRoom&lt;br&gt;HostMicView&lt;br&gt;主持&lt;/font&gt;" style="strokeWidth=2;rounded=1;arcSize=10;whiteSpace=wrap;html=1;align=center;fontSize=14;fillColor=none;" vertex="1" parent="uTZmpidnTNi-9U0CQCSV-14">
          <mxGeometry x="180" y="20.012605042016816" width="88" height="73.52941176470588" as="geometry"/>
        </mxCell>
        <mxCell id="uTZmpidnTNi-9U0CQCSV-26" value="" style="strokeWidth=2;rounded=1;arcSize=10;whiteSpace=wrap;html=1;align=center;fontSize=14;fillColor=none;" vertex="1" parent="uTZmpidnTNi-9U0CQCSV-14">
          <mxGeometry x="20" y="120" width="250" height="250" as="geometry"/>
        </mxCell>
        <mxCell id="uTZmpidnTNi-9U0CQCSV-27" value="&lt;font style=&quot;font-size: 12px&quot;&gt;MicView&lt;/font&gt;" style="strokeWidth=2;rounded=1;arcSize=10;whiteSpace=wrap;html=1;align=center;fontSize=14;fillColor=none;" vertex="1" parent="uTZmpidnTNi-9U0CQCSV-14">
          <mxGeometry x="42.5" y="195" width="55" height="60" as="geometry"/>
        </mxCell>
        <mxCell id="uTZmpidnTNi-9U0CQCSV-28" value="&lt;font style=&quot;font-size: 12px&quot;&gt;MicView&lt;/font&gt;" style="strokeWidth=2;rounded=1;arcSize=10;whiteSpace=wrap;html=1;align=center;fontSize=14;fillColor=none;" vertex="1" parent="uTZmpidnTNi-9U0CQCSV-14">
          <mxGeometry x="117.5" y="160" width="55" height="60" as="geometry"/>
        </mxCell>
        <mxCell id="uTZmpidnTNi-9U0CQCSV-30" value="&lt;font style=&quot;font-size: 12px&quot;&gt;MicView&lt;/font&gt;" style="strokeWidth=2;rounded=1;arcSize=10;whiteSpace=wrap;html=1;align=center;fontSize=14;fillColor=none;" vertex="1" parent="uTZmpidnTNi-9U0CQCSV-14">
          <mxGeometry x="200" y="220" width="55" height="60" as="geometry"/>
        </mxCell>
        <mxCell id="uTZmpidnTNi-9U0CQCSV-29" value="&lt;font style=&quot;font-size: 12px&quot;&gt;MicView&lt;/font&gt;" style="strokeWidth=2;rounded=1;arcSize=10;whiteSpace=wrap;html=1;align=center;fontSize=14;fillColor=none;" vertex="1" parent="uTZmpidnTNi-9U0CQCSV-14">
          <mxGeometry x="110" y="260" width="55" height="60" as="geometry"/>
        </mxCell>
        <mxCell id="uTZmpidnTNi-9U0CQCSV-31" value="PlayersView" style="text;html=1;resizable=0;points=[];autosize=1;align=left;verticalAlign=top;spacingTop=-4;fontSize=13;" vertex="1" parent="uTZmpidnTNi-9U0CQCSV-14">
          <mxGeometry x="97.5" y="130" width="90" height="20" as="geometry"/>
        </mxCell>
        <mxCell id="uTZmpidnTNi-9U0CQCSV-17" value="" style="rounded=1;absoluteArcSize=1;html=1;strokeWidth=2;arcSize=10;fontSize=13;fillColor=none;" vertex="1" parent="1">
          <mxGeometry x="340" y="1220" width="310" height="625" as="geometry"/>
        </mxCell>
        <mxCell id="uTZmpidnTNi-9U0CQCSV-18" value="" style="html=1;strokeWidth=2;shape=mxgraph.er.anchor;fontSize=14;whiteSpace=wrap;" vertex="1" parent="uTZmpidnTNi-9U0CQCSV-17">
          <mxGeometry width="155" height="625" as="geometry"/>
        </mxCell>
        <mxCell id="uTZmpidnTNi-9U0CQCSV-19" value="VoiceRoomChatViewChildController&lt;br&gt;聊天" style="rounded=1;absoluteArcSize=1;html=1;strokeWidth=2;arcSize=10;fontSize=14;whiteSpace=wrap;points=[];strokeColor=inherit;fillColor=inherit;" vertex="1" parent="uTZmpidnTNi-9U0CQCSV-17">
          <mxGeometry x="21.379310344827584" y="400.64102564102564" width="273.6551724137931" height="193.9102564102564" as="geometry"/>
        </mxCell>
        <mxCell id="uTZmpidnTNi-9U0CQCSV-20" value="Entity" style="strokeWidth=2;rounded=1;arcSize=10;whiteSpace=wrap;html=1;align=center;fontSize=14;fillColor=none;" vertex="1" parent="uTZmpidnTNi-9U0CQCSV-17">
          <mxGeometry x="21" y="178.57142857142858" width="267" height="205.8823529411765" as="geometry"/>
        </mxCell>
        <mxCell id="uTZmpidnTNi-9U0CQCSV-25" value="VoiceRoomMainViewChildController&lt;br&gt;" style="text;html=1;resizable=0;points=[];autosize=1;align=left;verticalAlign=top;spacingTop=-4;" vertex="1" parent="uTZmpidnTNi-9U0CQCSV-17">
          <mxGeometry x="60" y="10" width="210" height="20" as="geometry"/>
        </mxCell>
        <mxCell id="uTZmpidnTNi-9U0CQCSV-21" value="VoiceRoomAudienceListsChildController&lt;br&gt;左边" style="strokeWidth=2;rounded=1;arcSize=10;whiteSpace=wrap;html=1;align=center;fontSize=14;fillColor=none;" vertex="1" parent="1">
          <mxGeometry x="30" y="1450" width="280" height="390" as="geometry"/>
        </mxCell>
        <mxCell id="uTZmpidnTNi-9U0CQCSV-22" value="VoiceRoomProfileView&lt;br&gt;右边" style="strokeWidth=2;rounded=1;arcSize=10;whiteSpace=wrap;html=1;align=center;fontSize=14;fillColor=none;" vertex="1" parent="1">
          <mxGeometry x="670" y="1220" width="310" height="620" as="geometry"/>
        </mxCell>
      </root>
    </mxGraphModel>
  </diagram>
</mxfile>
